<svg width="24" height="16" viewBox="0 0 24 16" fill="none" xmlns="http://www.w3.org/2000/svg">
<g id="Android">
<g id="Android_2">
<rect id="Rectangle 11" width="24" height="16" rx="8" fill="#C4C4C4"/>
<path id="Vector" d="M16.4436 5.66196C15.9909 5.66196 15.6191 6.03379 15.6191 6.48645V9.92183C15.6191 10.3745 15.9909 10.7463 16.4436 10.7463C16.8962 10.7463 17.2681 10.3745 17.2681 9.92183V6.48645C17.2681 6.02975 16.8962 5.66196 16.4436 5.66196ZM6.82449 5.66196C6.37183 5.66196 6 6.03379 6 6.48645V9.92183C6 10.3745 6.37183 10.7463 6.82449 10.7463C7.27715 10.7463 7.64898 10.3745 7.64898 9.92183V6.48645C7.64898 6.02975 7.27715 5.66196 6.82449 5.66196ZM15.3119 5.80342V11.1343C15.3119 11.6274 14.9158 12.0235 14.4228 12.0235H13.8327V13.8422C13.8327 14.2949 13.4608 14.6667 13.0082 14.6667C12.5555 14.6667 12.1837 14.2949 12.1837 13.8422V12.0235H11.0844V13.8422C11.0844 14.2949 10.7125 14.6667 10.2599 14.6667C9.80721 14.6667 9.43538 14.2949 9.43538 13.8422V12.0235H8.84531C8.35223 12.0235 7.95615 11.6274 7.95615 11.1343V5.80342H15.3119ZM13.4366 2.55799L14.0186 1.50716C14.0509 1.45058 14.0307 1.37783 13.9741 1.34954C13.958 1.34146 13.9378 1.33337 13.9175 1.33337C13.8771 1.33337 13.8367 1.35358 13.8165 1.394L13.2264 2.45291C12.7455 2.2387 12.2039 2.11745 11.634 2.11745C11.0642 2.11745 10.5226 2.2387 10.0416 2.45291L9.45559 1.394C9.42326 1.33742 9.35455 1.31721 9.29797 1.34954C9.24139 1.38187 9.22118 1.45058 9.25351 1.50716L9.83551 2.55799C8.71597 3.13998 7.96423 4.24335 7.96019 5.51242H15.316C15.3119 4.24335 14.5561 3.13998 13.4366 2.55799ZM9.93655 4.16656C9.7668 4.16656 9.62938 4.02914 9.62938 3.85939C9.62938 3.68964 9.7668 3.55223 9.93655 3.55223C10.1063 3.55223 10.2437 3.68964 10.2437 3.85939C10.2437 4.02914 10.1063 4.16656 9.93655 4.16656ZM13.3315 4.16656C13.1618 4.16656 13.0244 4.02914 13.0244 3.85939C13.0244 3.68964 13.1618 3.55223 13.3315 3.55223C13.5013 3.55223 13.6387 3.68964 13.6387 3.85939C13.6387 4.02914 13.5013 4.16656 13.3315 4.16656Z" fill="white"/>
</g>
</g>
</svg>
