<svg width="24" height="16" viewBox="0 0 24 16" fill="none" xmlns="http://www.w3.org/2000/svg">
<g id="Apple">
<g id="Apple_2">
<rect id="Rectangle 11" width="24" height="16" rx="8" fill="#C4C4C4"/>
<path id="Vector" d="M12.0793 4.97692C11.5855 4.97692 10.8212 4.41553 10.0163 4.43582C8.95443 4.44935 7.98045 5.05132 7.43259 6.005C6.3301 7.91914 7.14851 10.7464 8.22395 12.302C8.75152 13.0596 9.37378 13.9118 10.199 13.8847C10.9903 13.8509 11.2879 13.3707 12.2484 13.3707C13.2021 13.3707 13.4726 13.8847 14.3113 13.8645C15.1635 13.8509 15.7046 13.0934 16.2254 12.3291C16.8274 11.4498 17.0777 10.5976 17.0912 10.5502C17.0709 10.5435 15.4341 9.91444 15.4138 8.02059C15.4003 6.43788 16.7057 5.68034 16.7665 5.64652C16.0225 4.55756 14.8795 4.43582 14.4804 4.40876C13.4388 4.3276 12.5663 4.97692 12.0793 4.97692ZM13.8378 3.38068C14.2775 2.85311 14.5683 2.11586 14.4872 1.38538C13.8581 1.41243 13.1006 1.80473 12.6474 2.3323C12.2416 2.799 11.8899 3.54977 11.9846 4.26672C12.6812 4.32083 13.3982 3.90825 13.8378 3.38068Z" fill="white"/>
</g>
</g>
</svg>
