<svg width="24" height="16" viewBox="0 0 24 16" fill="none" xmlns="http://www.w3.org/2000/svg">
<g id="iOS">
<g id="iOS_2">
<rect id="Rectangle 11" width="24" height="16" rx="8" fill="#C4C4C4"/>
<g id="Group">
<path id="path10039 1" d="M15.7255 11.3472C15.209 11.2587 14.7072 11.1849 14.294 10.9488C14.294 10.9488 14.5449 9.98952 14.5596 9.97476C15.2385 10.2109 16.1978 10.5208 16.8324 10.2256C17.1866 10.0485 17.3489 9.72387 17.3046 9.35492C17.2456 8.92694 16.9504 8.69081 16.1535 8.39566C15.268 8.05622 14.7367 7.65776 14.5301 7.12647C14.4268 6.86083 14.3973 6.53615 14.4416 6.24099C14.5744 5.42931 15.209 4.8685 16.1683 4.69141C16.4487 4.64713 17.0537 4.64713 17.3489 4.69141C17.7769 4.7652 18.2639 4.92754 18.2639 4.98657C18.2639 5.01608 18.013 5.8868 17.9983 5.91632C17.5703 5.75398 17.1128 5.63592 16.6996 5.62116C16.1387 5.6064 15.5189 5.94584 15.6222 6.53615C15.696 6.9051 15.9321 7.0822 16.8029 7.43639C17.4522 7.70203 17.7474 7.87913 18.013 8.14477C18.382 8.51372 18.5 8.9417 18.5 9.36968C18.5 9.72387 18.4705 9.88621 18.3377 10.1666C18.0278 10.8307 17.4079 11.2144 16.4634 11.3177C16.2863 11.3472 15.8731 11.362 15.7255 11.3472Z" fill="white"/>
<path id="path10079 1" d="M10.944 4.64709C10.4422 4.64709 10.0142 4.7504 9.60097 4.95701C8.52364 5.4883 7.90381 6.62466 7.90381 8.04143C7.90381 9.45819 8.50889 10.565 9.58622 11.0668C9.88138 11.1996 10.1765 11.2734 10.6193 11.3325C10.8406 11.3472 11.0473 11.362 11.2686 11.3325C11.7114 11.2734 12.0065 11.1996 12.3017 11.0668C13.379 10.5503 13.9841 9.45819 13.9841 8.04143C13.9841 6.62466 13.3643 5.4883 12.2869 4.95701C11.8589 4.7504 11.431 4.64709 10.944 4.64709ZM11.3719 5.65064C12.0213 5.82773 12.4788 6.40329 12.6706 7.25926C12.8035 7.84957 12.7592 8.5432 12.5821 9.08925C12.3017 9.93045 11.6966 10.4175 10.944 10.4027C10.2061 10.4175 9.58622 9.93045 9.30582 9.08925C9.12872 8.5432 9.08445 7.86433 9.21727 7.25926C9.39437 6.40329 9.86662 5.82773 10.516 5.65064C10.7964 5.59161 11.0915 5.59161 11.3719 5.65064Z" fill="white"/>
<path id="path10077 1" d="M6.64935 4.64709C6.29516 4.64709 6 4.94225 6 5.29644C6 5.65064 6.29516 5.9458 6.64935 5.9458C7.00354 5.9458 7.2987 5.65064 7.2987 5.29644C7.2987 4.94225 7.00354 4.64709 6.64935 4.64709ZM6.04428 6.6099V11.3472H7.25443V6.6099H6.04428Z" fill="white"/>
</g>
</g>
</g>
</svg>
