<svg width="18" height="17" viewBox="0 0 18 17" fill="none" xmlns="http://www.w3.org/2000/svg">
<path d="M8.08255 1.11573C8.4307 0.312854 9.5693 0.312853 9.91745 1.11573L11.4807 4.72069C11.6256 5.05485 11.9407 5.28379 12.3033 5.31834L16.2149 5.69108C17.086 5.77409 17.4379 6.85696 16.7819 7.43618L13.8364 10.0369C13.5634 10.278 13.4431 10.6484 13.5222 11.0039L14.3765 14.8392C14.5667 15.6934 13.6456 16.3627 12.892 15.9178L9.50839 13.9201C9.19475 13.735 8.80525 13.735 8.49161 13.9201L5.10798 15.9178C4.35439 16.3627 3.43325 15.6934 3.62351 14.8392L4.47777 11.0039C4.55695 10.6484 4.43658 10.278 4.16356 10.0369L1.21811 7.43618C0.562109 6.85696 0.913955 5.77409 1.78513 5.69108L5.69671 5.31834C6.05929 5.2838 6.37441 5.05485 6.51931 4.72069L8.08255 1.11573Z" fill="#FFD83A"/>
</svg>
