<?xml version="1.0" encoding="utf-8"?><svg viewBox="0 0 34 34" xmlns="http://www.w3.org/2000/svg" xmlns:xlink="http://www.w3.org/1999/xlink"><style>:root>svg{display:none}:root>svg:target{display:block}</style><svg fill="none" viewBox="0 0 24 16" id="android" xmlns="http://www.w3.org/2000/svg"><rect width="24" height="16" rx="8" fill="#C4C4C4"/><path d="M16.444 5.662a.828.828 0 00-.825.824v3.436c0 .452.372.824.825.824a.828.828 0 00.824-.824V6.486a.825.825 0 00-.824-.824zm-9.62 0A.828.828 0 006 6.486v3.436c0 .452.372.824.824.824a.828.828 0 00.825-.824V6.486a.825.825 0 00-.825-.824zm8.488.141v5.331c0 .493-.396.89-.89.89h-.59v1.818a.828.828 0 01-.824.825.828.828 0 01-.824-.825v-1.819h-1.1v1.82a.828.828 0 01-.824.824.828.828 0 01-.825-.825v-1.819h-.59a.887.887 0 01-.889-.889v-5.33h7.356zm-1.875-3.245l.582-1.05a.113.113 0 00-.045-.158.111.111 0 00-.158.044l-.59 1.059a3.914 3.914 0 00-1.592-.336c-.57 0-1.111.122-1.592.336l-.586-1.059a.114.114 0 00-.158-.044.114.114 0 00-.044.157l.582 1.051c-1.12.582-1.872 1.685-1.876 2.954h7.356c-.004-1.269-.76-2.372-1.88-2.954zm-3.5 1.609a.307.307 0 110-.615.307.307 0 010 .615zm3.395 0a.307.307 0 110-.614.307.307 0 010 .614z" fill="#fff"/></svg><svg fill="none" viewBox="0 0 24 16" id="apple" xmlns="http://www.w3.org/2000/svg"><rect width="24" height="16" rx="8" fill="#C4C4C4"/><path d="M12.08 4.977c-.495 0-1.259-.561-2.064-.541-1.062.013-2.036.615-2.583 1.569-1.103 1.914-.284 4.741.791 6.297.528.758 1.15 1.61 1.975 1.583.791-.034 1.089-.514 2.05-.514.953 0 1.224.514 2.062.493.853-.013 1.394-.77 1.914-1.535.602-.88.853-1.731.866-1.779-.02-.007-1.657-.636-1.677-2.53-.014-1.582 1.292-2.34 1.353-2.373-.744-1.09-1.887-1.211-2.287-1.238-1.041-.081-1.914.568-2.4.568zm1.758-1.596c.44-.528.73-1.265.65-1.996-.63.027-1.387.42-1.84.947-.406.467-.758 1.218-.663 1.935.696.054 1.413-.359 1.853-.886z" fill="#fff"/></svg><svg viewBox="0 0 34 34" id="arrow" xmlns="http://www.w3.org/2000/svg"><path d="M14.333 1H33m0 0v18.667M33 1L1 33"/></svg><svg fill="none" viewBox="0 0 8 6" id="arrow-more" xmlns="http://www.w3.org/2000/svg"><path d="M1 1.5l3 3 3-3" stroke="#412EAE" stroke-width="1.2" stroke-linecap="round" stroke-linejoin="round"/></svg><svg fill="none" viewBox="0 0 24 16" id="ios" xmlns="http://www.w3.org/2000/svg"><rect width="24" height="16" rx="8" fill="#C4C4C4"/><g fill="#fff"><path d="M15.726 11.347c-.517-.088-1.019-.162-1.432-.398 0 0 .25-.96.266-.974.678.236 1.638.546 2.272.25a.823.823 0 00.473-.87c-.06-.428-.355-.664-1.151-.96-.886-.339-1.417-.737-1.624-1.269a1.79 1.79 0 01-.088-.885c.132-.812.767-1.372 1.726-1.55.28-.044.886-.044 1.18 0 .429.074.916.237.916.296 0 .03-.251.9-.266.93-.428-.163-.885-.281-1.298-.296-.561-.015-1.181.325-1.078.915.074.37.31.546 1.18.9.65.266.945.443 1.211.709.369.369.487.797.487 1.225 0 .354-.03.516-.162.797-.31.664-.93 1.047-1.875 1.15-.177.03-.59.045-.738.03zM10.944 4.647c-.502 0-.93.103-1.343.31-1.077.531-1.697 1.668-1.697 3.084 0 1.417.605 2.524 1.682 3.026.295.133.59.206 1.033.265.222.015.428.03.65 0 .442-.059.738-.132 1.033-.265 1.077-.517 1.682-1.609 1.682-3.026 0-1.416-.62-2.553-1.697-3.084a2.99 2.99 0 00-1.343-.31zm.428 1.004c.65.177 1.107.752 1.299 1.608.133.59.088 1.284-.089 1.83-.28.841-.885 1.329-1.638 1.314-.738.014-1.358-.473-1.638-1.314a3.639 3.639 0 01-.089-1.83c.177-.856.65-1.431 1.299-1.608a2.09 2.09 0 01.856 0zM6.65 4.647a.655.655 0 00-.65.65c0 .354.295.649.65.649.354 0 .649-.295.649-.65a.655.655 0 00-.65-.649zM6.043 6.61v4.737h1.21V6.61h-1.21z"/></g></svg><svg fill="none" viewBox="0 0 34 34" id="line" xmlns="http://www.w3.org/2000/svg"><path d="M14.333 1H33m0 0v18.667M33 1L1 33" stroke="#412EAE" stroke-width="1.5" stroke-linecap="round" stroke-linejoin="round"/></svg><svg fill="none" viewBox="0 0 24 24" id="mark" xmlns="http://www.w3.org/2000/svg"><path d="M21 6L9 18l-6-6" stroke="#1A1A1A" stroke-width="1.8" stroke-linecap="round" stroke-linejoin="round"/></svg><svg fill="none" viewBox="0 0 18 17" id="star" xmlns="http://www.w3.org/2000/svg"><path d="M8.083 1.116c.348-.803 1.486-.803 1.834 0l1.564 3.605a1 1 0 00.822.597l3.912.373c.871.083 1.223 1.166.567 1.745l-2.946 2.6a1 1 0 00-.314.968l.854 3.835c.19.854-.73 1.524-1.484 1.079L9.508 13.92a1 1 0 00-1.016 0l-3.384 1.998c-.754.445-1.675-.225-1.484-1.079l.854-3.835a1 1 0 00-.314-.967l-2.946-2.6c-.656-.58-.304-1.663.567-1.746l3.912-.373a1 1 0 00.822-.597l1.564-3.605z" fill="#FFD83A"/></svg><svg fill="none" viewBox="0 0 18 17" id="star-empty" xmlns="http://www.w3.org/2000/svg"><path d="M8.083 1.116c.348-.803 1.486-.803 1.834 0l1.564 3.605a1 1 0 00.822.597l3.912.373c.871.083 1.223 1.166.567 1.745l-2.946 2.6a1 1 0 00-.314.968l.854 3.835c.19.854-.73 1.524-1.484 1.079L9.508 13.92a1 1 0 00-1.016 0l-3.384 1.998c-.754.445-1.675-.225-1.484-1.079l.854-3.835a1 1 0 00-.314-.967l-2.946-2.6c-.656-.58-.304-1.663.567-1.746l3.912-.373a1 1 0 00.822-.597l1.564-3.605z" fill="#C4C4C4"/></svg><svg fill="none" viewBox="0 0 24 16" id="windows" xmlns="http://www.w3.org/2000/svg"><rect width="24" height="16" rx="8" fill="#C4C4C4"/><path d="M6 4.534l4.414-.601.002 4.257-4.412.025L6 4.534zm4.412 4.147l.003 4.26-4.412-.606V8.652l4.409.029zm.534-4.827L16.8 3v5.136l-5.852.046V3.854zM16.8 8.721l-.001 5.112-5.852-.826-.009-4.296 5.862.01z" fill="#fff"/></svg></svg>